<svg xmlns="http://www.w3.org/2000/svg" version="1.1" xmlns:xlink="http://www.w3.org/1999/xlink" xmlns:svgjs="http://svgjs.dev/svgjs" width="1500" height="1500" viewBox="0 0 1500 1500"><rect width="1500" height="1500" fill="#ffffff"></rect><g transform="matrix(0.6666666666666666,0,0,0.6666666666666666,249.39393939393938,671.9451318649149)"><svg viewBox="0 0 396 62" data-background-color="#ffffff" preserveAspectRatio="xMidYMid meet" height="234" width="1500" xmlns="http://www.w3.org/2000/svg" xmlns:xlink="http://www.w3.org/1999/xlink"><g id="tight-bounds" transform="matrix(1,0,0,1,0.2400000000000091,0.021806566508189462)"><svg viewBox="0 0 395.52 61.95638686698362" height="61.95638686698362" width="395.52"><g><svg viewBox="0 0 484.3520411723756 75.8715170982223" height="61.95638686698362" width="395.52"><g transform="matrix(1,0,0,1,0,10.485860901418569)"><svg viewBox="0 0 395.52 54.89979529538516" height="54.89979529538516" width="395.52"><g id="textblocktransform"><svg viewBox="0 0 395.52 54.89979529538516" height="54.89979529538516" width="395.52" id="textblock"><g><svg viewBox="0 0 395.52 54.89979529538516" height="54.89979529538516" width="395.52"><g transform="matrix(1,0,0,1,0,0)"><svg width="395.52" viewBox="0.95 -37.95 278.43 38.650000000000006" height="54.89979529538516" data-palette-color="#336a86"><path d="M26.05-36L35.05-36 28.75 0 19.7 0 13.4-19.7 10 0 0.95 0 7.3-36 16.6-36 22.8-17.6 26.05-36ZM50.9-24.75L50.9-24.75Q56.3-24.75 59.05-22.4L59.05-22.4Q61.2-20.55 61.2-17.25L61.2-17.25Q61.2-16.15 60.95-14.85L60.95-14.85 59.9-9Q58.95-3.7 55.47-1.5 52 0.7 46.2 0.7 40.4 0.7 37.7-1.5L37.7-1.5Q35.7-3.15 35.7-6.45L35.7-6.45Q35.7-7.6 35.95-9L35.95-9 37-14.85Q38.75-24.75 50.9-24.75ZM51.6-10.1L52.25-13.85Q52.35-14.35 52.35-15.13 52.35-15.9 51.7-16.85 51.05-17.8 49.42-17.8 47.8-17.8 46.7-16.73 45.6-15.65 45.3-13.85L45.3-13.85 44.65-10.1Q44.55-9.6 44.55-8.83 44.55-8.05 45.2-7.15 45.85-6.25 47.47-6.25 49.1-6.25 50.2-7.38 51.3-8.5 51.6-10.1L51.6-10.1ZM88.4-18.95L88.4-18.95Q88.4-17.25 87.82-15.65 87.25-14.05 86.7-13.3L86.7-13.3 86.15-12.6 78.6-12.6Q79.85-13.75 79.85-15.45L79.85-15.45Q79.85-16.35 79.27-16.93 78.7-17.5 77.7-17.5L77.7-17.5Q76-17.5 74.75-15.8L74.75-15.8 71.95 0 63.45 0 67.7-24.05 75.6-24.05 75-20.7Q77.85-24.75 81.9-24.75L81.9-24.75Q85.15-24.75 86.77-23.2 88.4-21.65 88.4-18.95ZM100.54 0.7L100.54 0.7Q94.74 0.7 92.19-1.9L92.19-1.9Q90.29-3.8 90.29-7L90.29-7Q90.29-8.05 90.49-9.25L90.49-9.25 93.89-28.6 103.04-32.4 101.59-24.05 115.39-24.05 114.14-17 100.34-17 99.34-11.35Q99.14-10.4 99.14-9.65L99.14-9.65Q99.14-6.5 102.14-6.5L102.14-6.5Q103.74-6.5 104.82-7.85 105.89-9.2 106.29-11.45L106.29-11.45 114.59-11.45Q112.49 0.7 100.54 0.7ZM143.24-6.4L143.24-6.4Q144.39-6.4 145.29-6.9L145.29-6.9 145.04-1.25Q142.69 0.7 139.69 0.7L139.69 0.7Q132.89 0.7 132.89-5L132.89-5Q132.89-6 133.09-7.15L133.09-7.15 134.19-13.3Q134.34-14.2 134.34-15.1L134.34-15.1Q134.34-17.5 131.81-17.5 129.29-17.5 127.89-15.8L127.89-15.8 125.09 0 116.59 0 123.29-37.95 131.79-37.95 128.94-21.8Q131.69-24.75 135.84-24.75L135.84-24.75Q140.89-24.75 142.39-22.5L142.39-22.5Q143.44-21 143.44-19.15 143.44-17.3 143.14-15.75L143.14-15.75 141.79-8.3Q141.74-8 141.74-7.75L141.74-7.75Q141.74-6.4 143.24-6.4ZM158.34 0.7L158.34 0.7Q147.94 0.7 147.94-6.5L147.94-6.5Q147.94-7.5 148.14-8.65L148.14-8.65 149.19-14.85Q149.99-19.65 153.56-22.2 157.14-24.75 162.64-24.8L162.64-24.8Q173.29-24.8 173.29-17.4L173.29-17.4Q173.29-15.8 172.91-14.53 172.54-13.25 172.14-12.8L172.14-12.8 171.74-12.3 163.24-12.3Q164.49-13.4 164.49-14.9L164.49-14.9Q164.49-17.6 161.79-17.6L161.79-17.6Q160.19-17.6 159.04-16.65 157.89-15.7 157.54-13.75L157.54-13.75 156.89-10.1Q156.79-9.6 156.79-9.15L156.79-9.15Q156.79-6.5 160.09-6.5L160.09-6.5Q161.19-6.5 162.06-7.2 162.94-7.9 163.09-8.75L163.09-8.75 171.39-8.65Q169.74 0.7 158.34 0.7ZM185.04-7.7L185.04-7.7Q185.04-6.4 186.36-6.4 187.69-6.4 188.59-6.9L188.59-6.9 188.34-1.25Q185.94 0.7 182.94 0.7L182.94 0.7Q178.39 0.7 177.04-1.4L177.04-1.4Q176.19-2.75 176.19-4.35 176.19-5.95 176.39-7.15L176.39-7.15 181.84-37.95 190.34-37.95 185.09-8.3Q185.04-8 185.04-7.7ZM206.63-24.75L206.63-24.75Q212.03-24.75 214.78-22.4L214.78-22.4Q216.93-20.55 216.93-17.25L216.93-17.25Q216.93-16.15 216.68-14.85L216.68-14.85 215.63-9Q214.68-3.7 211.21-1.5 207.73 0.7 201.93 0.7 196.13 0.7 193.43-1.5L193.43-1.5Q191.43-3.15 191.43-6.45L191.43-6.45Q191.43-7.6 191.68-9L191.68-9 192.73-14.85Q194.48-24.75 206.63-24.75ZM207.33-10.1L207.98-13.85Q208.08-14.35 208.08-15.13 208.08-15.9 207.43-16.85 206.78-17.8 205.16-17.8 203.53-17.8 202.43-16.73 201.33-15.65 201.03-13.85L201.03-13.85 200.38-10.1Q200.28-9.6 200.28-8.83 200.28-8.05 200.93-7.15 201.58-6.25 203.21-6.25 204.83-6.25 205.93-7.38 207.03-8.5 207.33-10.1L207.33-10.1ZM243.98-7.7L243.98-7.7Q243.98-6.4 245.31-6.4 246.63-6.4 247.53-6.9L247.53-6.9 247.28-1.25Q244.88 0.7 241.88 0.7L241.88 0.7Q236.23 0.7 235.73-3.65L235.73-3.65Q232.73 0.7 227.66 0.7 222.58 0.7 221.08-1.6L221.08-1.6Q220.08-3.05 220.08-4.9 220.08-6.75 220.38-8.3L220.38-8.3 223.18-24.05 231.68-24.05 229.33-10.75Q229.18-9.85 229.18-8.95L229.18-8.95Q229.18-6.55 231.88-6.55L231.88-6.55Q234.13-6.55 235.48-8.1L235.48-8.1 238.33-24.05 246.83-24.05 244.03-8.3Q243.98-8 243.98-7.7ZM274.08-7.7L274.08-7.7Q274.08-6.4 275.4-6.4 276.73-6.4 277.63-6.9L277.63-6.9 277.38-1.25Q274.98 0.7 271.98 0.7L271.98 0.7Q266.48 0.7 265.88-3.3L265.88-3.3Q263.38 0.7 258.53 0.7L258.53 0.7Q250.33 0.7 250.33-6.35L250.33-6.35Q250.33-7.55 250.58-9L250.58-9 251.63-14.85Q252.43-19.35 255.3-22.03 258.18-24.7 263.28-24.7L263.28-24.7Q266.43-24.7 268.28-23.35L268.28-23.35 270.83-37.95 279.38-37.95 274.13-8.3Q274.08-8 274.08-7.7ZM259.93-13.85L259.28-10.1Q259.18-9.65 259.18-8.85 259.18-8.05 259.93-7.28 260.68-6.5 262.45-6.5 264.23-6.5 265.53-7.9L265.53-7.9 267.03-16.3Q266.48-17.55 264.43-17.55L264.43-17.55Q260.58-17.55 259.93-13.85L259.93-13.85Z" opacity="1" transform="matrix(1,0,0,1,0,0)" fill="#336a86" class="wordmark-text-0" data-fill-palette-color="primary" id="text-0"></path></svg></g></svg></g></svg></g></svg></g><g transform="matrix(1,0,0,1,408.4805240741533,0)"><svg viewBox="0 0 75.8715170982223 75.8715170982223" height="75.8715170982223" width="75.8715170982223"><g data-palette-color="#283132"><rect width="20.738214673514097" height="75.8715170982223" fill="#283132" stroke="transparent" data-fill-palette-color="accent" x="0" fill-opacity="1"></rect><rect width="20.738214673514097" height="75.8715170982223" fill="#283132" stroke="transparent" data-fill-palette-color="accent" x="25.290505699407433" fill-opacity="0.75"></rect><rect width="20.738214673514097" height="75.8715170982223" fill="#283132" stroke="transparent" data-fill-palette-color="accent" x="50.581011398814866" fill-opacity="0.5"></rect></g></svg></g></svg></g><defs></defs></svg><rect width="395.52" height="61.95638686698362" fill="none" stroke="none" visibility="hidden"></rect></g></svg></g></svg>